<svg width="50" height="26" viewBox="0 0 50 26" fill="none" xmlns="http://www.w3.org/2000/svg">
<path fill-rule="evenodd" clip-rule="evenodd" d="M6.49083 0L9.2418 1.36125C8.23026 3.36489 7.25405 5.50062 6.75583 7.65326C6.70688 7.89579 6.6472 8.1965 6.60244 8.51679L6.59107 8.60072C6.58559 8.64289 6.58043 8.68538 6.57559 8.72804L6.56631 8.81351C6.46615 9.79948 6.56994 10.8565 7.56938 10.9448C9.66042 10.9757 12.8078 5.14954 14.5284 1.84884C14.9304 1.12184 15.2476 0.464173 15.3976 0.186648C15.3976 0.186648 17.4689 1.21169 17.5922 1.27284L17.5951 1.27421L17.5982 1.27575C17.5971 1.27789 17.596 1.28019 17.5949 1.28234C17.5303 4.88459 16.8654 10.6873 15.113 15.7654C15.6337 15.8152 16.1491 15.8702 16.6565 15.9282C17.4121 16.0223 18.3211 16.159 19.0653 16.2859C22.3953 16.8733 25.7814 17.3031 29.1556 17.3774C33.1699 17.4492 37.4098 17.035 41.0862 15.4441C42.7189 14.7253 44.4237 13.6478 45.298 12.1595C46.0657 10.8094 45.6956 9.70028 44.2261 9.16143C42.8487 8.61055 41.5611 7.32071 41.3122 5.75348C41.0311 4.15009 41.6902 2.50616 42.939 1.51082C44.0597 0.62998 45.341 0.351382 46.6374 0.201362C47.8044 0.0871978 48.9097 0.101749 50 0.167952V2.61982C48.3599 2.76234 45.9973 2.80849 44.8139 3.77341C44.2251 4.29926 44.0527 5.24201 44.6366 5.82855C45.0111 6.26121 45.8192 6.45353 46.3224 6.78113C48.8694 8.26296 49.3828 11.2381 47.8715 13.6754C44.7892 18.4455 37.5884 19.5829 32.3665 19.8036C27.7665 19.9969 23.1757 19.5142 18.657 18.7243C17.9424 18.6061 17.0681 18.4746 16.3466 18.3871C15.7355 18.3077 14.9922 18.228 14.1725 18.1663C12.1233 22.7774 8.9822 26.2664 4.30672 25.984C2.14011 25.7692 0.0857517 24.0671 0.00494527 21.7798C-0.104006 19.5939 1.60462 17.8622 3.41922 17.008C6.16276 15.7372 9.26712 15.4665 12.319 15.5753C13.1892 13.1326 13.7232 10.5368 14.0815 7.9781C13.4911 8.95798 12.8572 9.91543 12.1579 10.8375C11.2766 11.9442 10.2047 13.0837 8.77002 13.5427C6.97938 14.1471 4.7893 13.2099 4.08107 11.4353C3.05341 8.90833 4.14462 5.75656 5.00696 3.39511C5.45446 2.23015 5.95736 1.10442 6.49083 0ZM11.2798 18.0583C7.82631 18.0696 4.08172 18.6396 2.74132 20.7916C2.02809 22.1126 3.21228 23.3444 4.60131 23.4682C7.39986 23.6888 9.50849 21.3068 10.78 19.031C10.9558 18.7122 11.1204 18.3867 11.2798 18.0583ZM25.5691 0.204531C26.9436 -0.175354 28.6247 0.0428592 29.7127 1.09396C31.3679 2.65947 31.1141 5.19594 29.6614 6.77739C28.0704 8.53361 25.7331 9.19311 23.4879 9.43223C22.8801 9.49577 22.2763 9.52169 21.6771 9.52339C21.638 10.1491 21.7083 10.764 21.9555 11.2681C22.3603 12.0749 23.545 12.3964 24.4741 12.2707C25.6384 12.1334 26.639 11.4336 27.2712 10.4215C27.2712 10.4215 27.8123 10.7114 28.3535 11.0012L28.4548 11.0554C28.9601 11.3261 29.4357 11.5808 29.4357 11.5808C28.1747 14.3511 24.7954 15.8912 21.8655 14.8231C17.489 13.2279 18.1775 7.67975 20.2138 4.49101C21.4226 2.51501 23.2793 0.833593 25.5691 0.204531ZM37.5477 0.156626C38.7444 0.06162 39.8506 0.102838 40.9423 0.167814V2.61966C39.3455 2.77786 36.3036 2.6533 35.478 4.10109C35.0271 4.78148 35.2698 5.76103 36.016 6.12008C36.1664 6.20279 36.2278 6.21481 36.6296 6.38658C37.2765 6.67542 37.899 7.0798 38.4339 7.63336C39.964 9.17572 40.1174 11.5481 38.7208 13.268C37.1454 15.1972 34.4963 15.1775 32.2847 15.1106C31.8806 15.0978 31.0602 15.0594 30.6565 15.0324V12.5805C31.7389 12.5106 32.81 12.4959 33.7971 12.3814C34.7887 12.2488 36.0022 12.1514 36.4961 11.2661C37.0263 10.3789 36.2292 9.53599 35.3877 9.1871C33.9688 8.70269 32.6863 7.51953 32.3427 5.96334C31.9626 4.37759 32.5323 2.68271 33.741 1.60201C34.8108 0.618045 36.224 0.272171 37.5477 0.156626ZM27.5232 4.94236C28.4966 3.73783 27.8116 2.65736 26.3311 3.08839C24.5117 3.67307 23.1512 5.22795 22.3623 6.96637C24.2558 6.77804 26.2984 6.30208 27.5232 4.94236Z" fill="#0E0925"/>
</svg>
